<svg version="1.1" id="Layer_1" xmlns="http://www.w3.org/2000/svg" xmlns:xlink="http://www.w3.org/1999/xlink" x="0px" y="0px" style="enable-background:new 0 0 71.05 20.36;" xml:space="preserve" viewBox="11.6 3.3 43.98 14.95">
<style type="text/css">
	.st0{fill:#010101;}
</style>
<g>
	<g>
		<path class="st0" d="M15.77,3.32c-2.52,0-4.17,0.56-4.17,2.05v6.95c0.02,0.16,0.23,0.21,0.32,0.08c0.98-1.38,1.32-1.85,2.26-3.18    c0.06-0.08,0.15-0.13,0.25-0.13c0.1,0,0.19,0.05,0.25,0.13c1.56,2.26,1.47,2.13,1.96,2.84c0.05,0.08,0.15,0.15,0.27,0.14    c0.13,0,0.23-0.09,0.3-0.2c0.03-0.05,0.71-1.12,0.67-1.05c0.06-0.1,0.18-0.15,0.3-0.13c0.06,0.01,0.12,0.05,0.16,0.1    c0.04,0.05,1.37,1.64,1.29,1.54c0.11,0.13,0.32,0.05,0.32-0.11v-7C19.95,3.88,18.29,3.32,15.77,3.32z M16.98,7.27    c-0.37,0-0.68-0.31-0.68-0.68c0-0.38,0.31-0.69,0.68-0.69c0.38,0,0.69,0.31,0.69,0.69C17.66,6.96,17.36,7.27,16.98,7.27z"/>
		<path class="st0" d="M18.29,15.1l-2.2,2.99c-0.07,0.1-0.19,0.16-0.32,0.16c-0.13,0-0.24-0.06-0.32-0.16l-2.2-2.99    c0.7-0.52,1.58-0.83,2.52-0.83C16.71,14.27,17.59,14.58,18.29,15.1z"/>
	</g>
</g>
<g>
	<path d="M22.12,10.82V4.13h1.59V9.4h2.26l-0.14,1.42H22.12z"/>
	<path d="M26.65,10.82V4.13h1.59v6.69H26.65z"/>
	<path d="M29.41,10.82V4.13h2.17c0.66,0,1.17,0.15,1.54,0.45c0.37,0.3,0.55,0.71,0.55,1.24c0,0.64-0.31,1.13-0.92,1.45   c0.36,0.14,0.63,0.34,0.82,0.62c0.19,0.28,0.29,0.6,0.29,0.97c0,0.61-0.2,1.09-0.61,1.44c-0.41,0.35-0.97,0.52-1.7,0.52H29.41z    M31.42,6.77c0.23,0,0.41-0.06,0.54-0.18c0.13-0.12,0.19-0.3,0.19-0.52c0-0.22-0.06-0.39-0.19-0.51c-0.13-0.12-0.31-0.18-0.55-0.18   h-0.54v1.39H31.42z M31.48,9.58c0.28,0,0.5-0.07,0.65-0.22s0.22-0.35,0.22-0.62c0-0.27-0.07-0.47-0.22-0.61   C31.97,8,31.76,7.93,31.48,7.93h-0.61v1.65H31.48z"/>
	<path d="M37.75,10.82l-0.88-2.39c-0.04,0.01-0.12,0.01-0.24,0.01h-0.43v2.38h-1.5V4.13h2.12c0.74,0,1.31,0.18,1.71,0.55   c0.41,0.37,0.61,0.88,0.61,1.55c0,0.36-0.08,0.68-0.23,0.98c-0.15,0.3-0.37,0.55-0.66,0.76l1.16,2.85H37.75z M36.72,7.17   c0.61,0,0.91-0.3,0.91-0.9c0-0.57-0.3-0.86-0.9-0.86H36.2v1.76H36.72z"/>
	<path d="M43.59,10.82l-0.28-1.36H41.6l-0.3,1.36h-1.55l1.78-6.69h1.94l1.72,6.69H43.59z M42.49,5.49l-0.6,2.67h1.15L42.49,5.49z"/>
	<path d="M48.88,10.82l-0.88-2.39c-0.04,0.01-0.12,0.01-0.24,0.01h-0.43v2.38h-1.5V4.13h2.12c0.74,0,1.31,0.18,1.71,0.55   c0.41,0.37,0.61,0.88,0.61,1.55c0,0.36-0.08,0.68-0.23,0.98c-0.15,0.3-0.37,0.55-0.66,0.76l1.16,2.85H48.88z M47.85,7.17   c0.61,0,0.91-0.3,0.91-0.9c0-0.57-0.3-0.86-0.9-0.86h-0.53v1.76H47.85z"/>
	<path d="M52.25,10.82V8.26l-1.74-4.13h1.71l0.87,2.67l0.85-2.67h1.64l-1.73,4.13v2.56H52.25z"/>
	<path d="M22.07,18.03v-6.17h3.43v1.29h-1.96v1.31h1.83v1.29h-1.83v2.29H22.07z"/>
	<path d="M28.46,18.19c-0.8,0-1.41-0.27-1.81-0.81c-0.41-0.54-0.61-1.34-0.61-2.4c0-1.07,0.21-1.89,0.63-2.44   c0.42-0.55,1.03-0.83,1.84-0.83c0.8,0,1.41,0.27,1.81,0.81c0.41,0.54,0.61,1.34,0.61,2.4c0,1.07-0.21,1.89-0.63,2.44   C29.88,17.91,29.27,18.19,28.46,18.19z M28.48,16.86c0.33,0,0.57-0.15,0.71-0.45c0.14-0.3,0.22-0.79,0.22-1.48   c0-0.68-0.07-1.17-0.22-1.47c-0.14-0.3-0.38-0.45-0.7-0.45c-0.33,0-0.57,0.15-0.71,0.45c-0.14,0.3-0.22,0.79-0.22,1.48   c0,0.68,0.07,1.17,0.22,1.47C27.92,16.71,28.16,16.86,28.48,16.86z"/>
	<path d="M34.61,18.03l-0.81-2.21c-0.03,0.01-0.11,0.01-0.22,0.01h-0.4v2.2h-1.38v-6.17h1.95c0.68,0,1.21,0.17,1.58,0.51   s0.56,0.82,0.56,1.43c0,0.33-0.07,0.63-0.21,0.91c-0.14,0.28-0.34,0.51-0.61,0.7l1.07,2.63H34.61z M33.67,14.66   c0.56,0,0.84-0.28,0.84-0.83c0-0.53-0.28-0.8-0.83-0.8h-0.49v1.63H33.67z"/>
	<path d="M41.36,18.03l-1.25-2.76l-0.45,0.53v2.23h-1.44v-6.17h1.44v2.27l1.66-2.27h1.47l-1.7,2.35l1.83,3.82H41.36z"/>
	<path d="M43.47,18.03v-6.17h1.47v6.17H43.47z"/>
	<path d="M46.01,18.03v-6.17h1.89c0.85,0,1.5,0.26,1.95,0.77c0.45,0.52,0.67,1.27,0.67,2.27c0,1-0.23,1.77-0.69,2.31   c-0.46,0.54-1.11,0.82-1.95,0.82H46.01z M47.96,16.71c0.69,0,1.04-0.59,1.04-1.78c0-0.59-0.08-1.03-0.25-1.32   c-0.17-0.29-0.42-0.43-0.77-0.43h-0.51v3.53H47.96z"/>
	<path d="M52.64,15.44c-0.52-0.15-0.9-0.37-1.14-0.67c-0.24-0.3-0.36-0.7-0.36-1.2c0-0.57,0.19-1.02,0.56-1.36   c0.37-0.34,0.87-0.51,1.51-0.51c0.6,0,1.06,0.15,1.38,0.44c0.32,0.29,0.52,0.75,0.61,1.37l-1.4,0.16c-0.05-0.29-0.13-0.5-0.22-0.61   c-0.1-0.12-0.24-0.17-0.42-0.17c-0.18,0-0.33,0.05-0.42,0.16c-0.1,0.11-0.15,0.26-0.15,0.46c0,0.18,0.04,0.33,0.12,0.42   c0.08,0.1,0.22,0.17,0.41,0.22l0.65,0.19c0.55,0.16,0.95,0.39,1.19,0.68c0.24,0.29,0.36,0.69,0.36,1.21c0,0.61-0.19,1.09-0.56,1.44   s-0.88,0.52-1.54,0.52c-1.36,0-2.07-0.7-2.15-2.09h1.44c0.02,0.31,0.09,0.54,0.21,0.69c0.12,0.15,0.29,0.22,0.52,0.22   c0.2,0,0.36-0.06,0.46-0.18c0.11-0.12,0.16-0.28,0.16-0.5c0-0.19-0.04-0.34-0.13-0.45s-0.23-0.19-0.43-0.25L52.64,15.44z"/>
</g>
</svg>